<?xml version="1.0" standalone="no"?>
<!DOCTYPE svg PUBLIC "-//W3C//DTD SVG 20010904//EN"
 "http://www.w3.org/TR/2001/REC-SVG-20010904/DTD/svg10.dtd">
<svg version="1.0" xmlns="http://www.w3.org/2000/svg"
 width="500.000000pt" height="500.000000pt" viewBox="0 0 500.000000 500.000000"
 preserveAspectRatio="xMidYMid meet">

<g transform="translate(0.000000,500.000000) scale(0.100000,-0.100000)"
fill="#000000" stroke="none">
<path d="M0 2500 l0 -2500 2500 0 2500 0 0 2500 0 2500 -2500 0 -2500 0 0
-2500z m2821 401 c37 -38 39 -82 4 -116 -29 -29 -59 -31 -117 -8 -61 25 -170
23 -229 -3 -66 -31 -114 -78 -146 -142 -37 -77 -39 -182 -3 -257 46 -94 136
-160 237 -172 37 -4 71 1 127 17 91 27 120 22 149 -27 16 -28 17 -38 7 -69
-10 -30 -22 -41 -69 -63 -51 -24 -67 -26 -182 -26 -124 0 -126 0 -200 37 -186
92 -295 300 -260 498 7 37 18 75 24 84 12 15 589 273 615 275 8 1 27 -12 43
-28z"/>
</g>
</svg>
